<svg width="136" height="36" viewBox="0 0 136 36" fill="none" xmlns="http://www.w3.org/2000/svg">
<path d="M49.127 22.6396V24H41.792V22.6396H49.127ZM42.2158 22.6396V26.4473H40.5752L40.5137 22.6396H42.2158ZM50.4531 22.6396L50.3506 26.4404H48.7373V22.6396H50.4531ZM47.9238 14.0469V15.4141H43.3301V14.0469H47.9238ZM49.2363 14.0469V24H47.5273V14.0469H49.2363ZM42.9883 14.0469H44.7041L44.4648 18.0801C44.4284 18.7181 44.3623 19.2923 44.2666 19.8027C44.1709 20.3132 44.0547 20.7712 43.918 21.1768C43.7858 21.5778 43.6354 21.9333 43.4668 22.2432C43.2982 22.5485 43.1182 22.8128 42.9268 23.0361C42.7354 23.2594 42.5394 23.4508 42.3389 23.6104C42.1429 23.7653 41.9492 23.8952 41.7578 24H40.8418V22.6396H41.2861C41.4092 22.5257 41.5459 22.3617 41.6963 22.1475C41.8467 21.9287 41.9925 21.6439 42.1338 21.293C42.2796 20.9375 42.4072 20.4977 42.5166 19.9736C42.626 19.4495 42.7012 18.8184 42.7422 18.0801L42.9883 14.0469ZM60.0244 18.75V19.2969C60.0244 20.0488 59.9264 20.7233 59.7305 21.3203C59.5345 21.9173 59.2542 22.4255 58.8896 22.8447C58.5296 23.264 58.0967 23.5853 57.5908 23.8086C57.085 24.0273 56.5244 24.1367 55.9092 24.1367C55.2985 24.1367 54.7402 24.0273 54.2344 23.8086C53.7331 23.5853 53.2979 23.264 52.9287 22.8447C52.5596 22.4255 52.2725 21.9173 52.0674 21.3203C51.8669 20.7233 51.7666 20.0488 51.7666 19.2969V18.75C51.7666 17.998 51.8669 17.3258 52.0674 16.7334C52.2679 16.1364 52.5505 15.6283 52.915 15.209C53.2842 14.7852 53.7194 14.4639 54.2207 14.2451C54.7266 14.0218 55.2848 13.9102 55.8955 13.9102C56.5107 13.9102 57.0713 14.0218 57.5771 14.2451C58.083 14.4639 58.5182 14.7852 58.8828 15.209C59.2474 15.6283 59.5277 16.1364 59.7236 16.7334C59.9242 17.3258 60.0244 17.998 60.0244 18.75ZM58.3086 19.2969V18.7363C58.3086 18.1803 58.2539 17.6904 58.1445 17.2666C58.0397 16.8382 57.8825 16.4805 57.6729 16.1934C57.4678 15.9017 57.2148 15.6829 56.9141 15.5371C56.6133 15.3867 56.2738 15.3115 55.8955 15.3115C55.5173 15.3115 55.18 15.3867 54.8838 15.5371C54.5876 15.6829 54.3346 15.9017 54.125 16.1934C53.9199 16.4805 53.7627 16.8382 53.6533 17.2666C53.5439 17.6904 53.4893 18.1803 53.4893 18.7363V19.2969C53.4893 19.8529 53.5439 20.3451 53.6533 20.7734C53.7627 21.2018 53.9222 21.5641 54.1318 21.8604C54.346 22.152 54.6012 22.373 54.8975 22.5234C55.1937 22.6693 55.5309 22.7422 55.9092 22.7422C56.292 22.7422 56.6315 22.6693 56.9277 22.5234C57.224 22.373 57.4746 22.152 57.6797 21.8604C57.8848 21.5641 58.0397 21.2018 58.1445 20.7734C58.2539 20.3451 58.3086 19.8529 58.3086 19.2969ZM68.5498 14.0469V15.4141H63.9219V24H62.2129V14.0469H68.5498ZM63.4023 17.8682H65.9043C66.6608 17.8682 67.3079 17.9958 67.8457 18.251C68.3835 18.5016 68.7936 18.8548 69.0762 19.3105C69.3587 19.7663 69.5 20.2972 69.5 20.9033C69.5 21.359 69.4202 21.776 69.2607 22.1543C69.1012 22.5326 68.8665 22.8607 68.5566 23.1387C68.2467 23.4121 67.8685 23.624 67.4219 23.7744C66.9798 23.9248 66.474 24 65.9043 24H62.2129V14.0469H63.9355V22.6396H65.9043C66.3372 22.6396 66.6927 22.5599 66.9707 22.4004C67.2487 22.2363 67.4538 22.0221 67.5859 21.7578C67.7227 21.4935 67.791 21.2041 67.791 20.8896C67.791 20.5843 67.7227 20.3063 67.5859 20.0557C67.4538 19.805 67.2487 19.6045 66.9707 19.4541C66.6927 19.3037 66.3372 19.2285 65.9043 19.2285H63.4023V17.8682ZM75.4209 15.373L72.4473 24H70.6494L74.3955 14.0469H75.5439L75.4209 15.373ZM77.9092 24L74.9287 15.373L74.7988 14.0469H75.9541L79.7139 24H77.9092ZM77.7656 20.3086V21.6689H72.3516V20.3086H77.7656ZM85.0605 19.502H82.5244L82.5107 18.251H84.7256C85.0993 18.251 85.416 18.1963 85.6758 18.0869C85.9401 17.973 86.1406 17.8112 86.2773 17.6016C86.4141 17.3874 86.4824 17.1299 86.4824 16.8291C86.4824 16.4964 86.4186 16.2253 86.291 16.0156C86.1634 15.806 85.9674 15.6533 85.7031 15.5576C85.4434 15.4619 85.1107 15.4141 84.7051 15.4141H83.0439V24H81.3281V14.0469H84.7051C85.252 14.0469 85.7396 14.0993 86.168 14.2041C86.6009 14.3089 86.9678 14.473 87.2686 14.6963C87.5739 14.915 87.804 15.193 87.959 15.5303C88.1185 15.8675 88.1982 16.2686 88.1982 16.7334C88.1982 17.1436 88.1003 17.5195 87.9043 17.8613C87.7083 18.1986 87.4189 18.4743 87.0361 18.6885C86.6533 18.9027 86.1771 19.0303 85.6074 19.0713L85.0605 19.502ZM84.9854 24H81.9844L82.7568 22.6396H84.9854C85.3727 22.6396 85.6963 22.5758 85.9561 22.4482C86.2158 22.3161 86.4095 22.1361 86.5371 21.9082C86.6693 21.6758 86.7354 21.4046 86.7354 21.0947C86.7354 20.7712 86.6784 20.4909 86.5645 20.2539C86.4505 20.0124 86.2705 19.8278 86.0244 19.7002C85.7783 19.568 85.457 19.502 85.0605 19.502H83.1328L83.1465 18.251H85.6553L86.0449 18.7227C86.5918 18.7409 87.0407 18.8617 87.3916 19.085C87.7471 19.3083 88.0114 19.5977 88.1846 19.9531C88.3577 20.3086 88.4443 20.6914 88.4443 21.1016C88.4443 21.735 88.3053 22.266 88.0273 22.6943C87.7539 23.1227 87.3597 23.4486 86.8447 23.6719C86.3298 23.8906 85.71 24 84.9854 24ZM92.3691 21.2041L96.7852 14.0469H98.501V24H96.7852V16.8359L92.3691 24H90.6602V14.0469H92.3691V21.2041ZM104.948 14.0469V24H103.246V14.0469H104.948ZM108.072 14.0469V15.4141H100.149V14.0469H108.072ZM111.156 17.8682H113.658C114.415 17.8682 115.062 17.9958 115.6 18.251C116.137 18.5016 116.548 18.8548 116.83 19.3105C117.113 19.7663 117.254 20.2972 117.254 20.9033C117.254 21.359 117.174 21.776 117.015 22.1543C116.855 22.5326 116.62 22.8607 116.311 23.1387C116.001 23.4121 115.622 23.624 115.176 23.7744C114.734 23.9248 114.228 24 113.658 24H109.967V14.0469H111.689V22.6396H113.658C114.091 22.6396 114.447 22.5599 114.725 22.4004C115.003 22.2363 115.208 22.0221 115.34 21.7578C115.477 21.4935 115.545 21.2041 115.545 20.8896C115.545 20.5843 115.477 20.3063 115.34 20.0557C115.208 19.805 115.003 19.6045 114.725 19.4541C114.447 19.3037 114.091 19.2285 113.658 19.2285H111.156V17.8682Z" fill="#7ED321"/>
<path fill-rule="evenodd" clip-rule="evenodd" d="M22.6 21.6L18.4 17.4L17 18.8L22.6 24.4L34.6 12.4L33.2 11L22.6 21.6Z" fill="#7ED321"/>
</svg>
